<?xml version="1.0" encoding="UTF-8" standalone="no"?>
<svg
   xmlns:dc="http://purl.org/dc/elements/1.1/"
   xmlns:cc="http://creativecommons.org/ns#"
   xmlns:rdf="http://www.w3.org/1999/02/22-rdf-syntax-ns#"
   xmlns:svg="http://www.w3.org/2000/svg"
   xmlns="http://www.w3.org/2000/svg"
   xmlns:sodipodi="http://sodipodi.sourceforge.net/DTD/sodipodi-0.dtd"
   xmlns:inkscape="http://www.inkscape.org/namespaces/inkscape"
   width="370"
   height="370"
   version="1.1"
   id="svg859"
   sodipodi:docname="220229164939.svg"
   inkscape:version="0.92.5 (2060ec1f9f, 2020-04-08)"
   inkscape:export-filename="/home/teacher/下載/220229164939.png"
   inkscape:export-xdpi="129.72974"
   inkscape:export-ydpi="129.72974">
  <metadata
     id="metadata865">
    <rdf:RDF>
      <cc:Work
         rdf:about="">
        <dc:format>image/svg+xml</dc:format>
        <dc:type
           rdf:resource="http://purl.org/dc/dcmitype/StillImage" />
      </cc:Work>
    </rdf:RDF>
  </metadata>
  <defs
     id="defs863" />
  <sodipodi:namedview
     pagecolor="#ffffff"
     bordercolor="#666666"
     borderopacity="1"
     objecttolerance="10"
     gridtolerance="10"
     guidetolerance="10"
     inkscape:pageopacity="0"
     inkscape:pageshadow="2"
     inkscape:window-width="1368"
     inkscape:window-height="836"
     id="namedview861"
     showgrid="false"
     inkscape:zoom="0.63783784"
     inkscape:cx="183.4322"
     inkscape:cy="180.29661"
     inkscape:window-x="72"
     inkscape:window-y="27"
     inkscape:window-maximized="1"
     inkscape:current-layer="svg859" />
  <g
     id="quickmark"
     fill="black"
     transform="translate(40,40)">
    <rect
       x="0"
       y="0"
       width="10"
       height="10"
       id="rect2" />
    <rect
       x="10"
       y="0"
       width="10"
       height="10"
       id="rect4" />
    <rect
       x="20"
       y="0"
       width="10"
       height="10"
       id="rect6" />
    <rect
       x="30"
       y="0"
       width="10"
       height="10"
       id="rect8" />
    <rect
       x="40"
       y="0"
       width="10"
       height="10"
       id="rect10" />
    <rect
       x="50"
       y="0"
       width="10"
       height="10"
       id="rect12" />
    <rect
       x="60"
       y="0"
       width="10"
       height="10"
       id="rect14" />
    <rect
       x="110"
       y="0"
       width="10"
       height="10"
       id="rect16" />
    <rect
       x="140"
       y="0"
       width="10"
       height="10"
       id="rect18" />
    <rect
       x="150"
       y="0"
       width="10"
       height="10"
       id="rect20" />
    <rect
       x="190"
       y="0"
       width="10"
       height="10"
       id="rect22" />
    <rect
       x="220"
       y="0"
       width="10"
       height="10"
       id="rect24" />
    <rect
       x="230"
       y="0"
       width="10"
       height="10"
       id="rect26" />
    <rect
       x="240"
       y="0"
       width="10"
       height="10"
       id="rect28" />
    <rect
       x="250"
       y="0"
       width="10"
       height="10"
       id="rect30" />
    <rect
       x="260"
       y="0"
       width="10"
       height="10"
       id="rect32" />
    <rect
       x="270"
       y="0"
       width="10"
       height="10"
       id="rect34" />
    <rect
       x="280"
       y="0"
       width="10"
       height="10"
       id="rect36" />
    <rect
       x="0"
       y="10"
       width="10"
       height="10"
       id="rect38" />
    <rect
       x="60"
       y="10"
       width="10"
       height="10"
       id="rect40" />
    <rect
       x="100"
       y="10"
       width="10"
       height="10"
       id="rect42" />
    <rect
       x="120"
       y="10"
       width="10"
       height="10"
       id="rect44" />
    <rect
       x="150"
       y="10"
       width="10"
       height="10"
       id="rect46" />
    <rect
       x="170"
       y="10"
       width="10"
       height="10"
       id="rect48" />
    <rect
       x="180"
       y="10"
       width="10"
       height="10"
       id="rect50" />
    <rect
       x="220"
       y="10"
       width="10"
       height="10"
       id="rect52" />
    <rect
       x="280"
       y="10"
       width="10"
       height="10"
       id="rect54" />
    <rect
       x="0"
       y="20"
       width="10"
       height="10"
       id="rect56" />
    <rect
       x="20"
       y="20"
       width="10"
       height="10"
       id="rect58" />
    <rect
       x="30"
       y="20"
       width="10"
       height="10"
       id="rect60" />
    <rect
       x="40"
       y="20"
       width="10"
       height="10"
       id="rect62" />
    <rect
       x="60"
       y="20"
       width="10"
       height="10"
       id="rect64" />
    <rect
       x="90"
       y="20"
       width="10"
       height="10"
       id="rect66" />
    <rect
       x="100"
       y="20"
       width="10"
       height="10"
       id="rect68" />
    <rect
       x="120"
       y="20"
       width="10"
       height="10"
       id="rect70" />
    <rect
       x="140"
       y="20"
       width="10"
       height="10"
       id="rect72" />
    <rect
       x="150"
       y="20"
       width="10"
       height="10"
       id="rect74" />
    <rect
       x="170"
       y="20"
       width="10"
       height="10"
       id="rect76" />
    <rect
       x="220"
       y="20"
       width="10"
       height="10"
       id="rect78" />
    <rect
       x="240"
       y="20"
       width="10"
       height="10"
       id="rect80" />
    <rect
       x="250"
       y="20"
       width="10"
       height="10"
       id="rect82" />
    <rect
       x="260"
       y="20"
       width="10"
       height="10"
       id="rect84" />
    <rect
       x="280"
       y="20"
       width="10"
       height="10"
       id="rect86" />
    <rect
       x="0"
       y="30"
       width="10"
       height="10"
       id="rect88" />
    <rect
       x="20"
       y="30"
       width="10"
       height="10"
       id="rect90" />
    <rect
       x="30"
       y="30"
       width="10"
       height="10"
       id="rect92" />
    <rect
       x="40"
       y="30"
       width="10"
       height="10"
       id="rect94" />
    <rect
       x="60"
       y="30"
       width="10"
       height="10"
       id="rect96" />
    <rect
       x="90"
       y="30"
       width="10"
       height="10"
       id="rect98" />
    <rect
       x="100"
       y="30"
       width="10"
       height="10"
       id="rect100" />
    <rect
       x="110"
       y="30"
       width="10"
       height="10"
       id="rect102" />
    <rect
       x="140"
       y="30"
       width="10"
       height="10"
       id="rect104" />
    <rect
       x="180"
       y="30"
       width="10"
       height="10"
       id="rect106" />
    <rect
       x="220"
       y="30"
       width="10"
       height="10"
       id="rect108" />
    <rect
       x="240"
       y="30"
       width="10"
       height="10"
       id="rect110" />
    <rect
       x="250"
       y="30"
       width="10"
       height="10"
       id="rect112" />
    <rect
       x="260"
       y="30"
       width="10"
       height="10"
       id="rect114" />
    <rect
       x="280"
       y="30"
       width="10"
       height="10"
       id="rect116" />
    <rect
       x="0"
       y="40"
       width="10"
       height="10"
       id="rect118" />
    <rect
       x="20"
       y="40"
       width="10"
       height="10"
       id="rect120" />
    <rect
       x="30"
       y="40"
       width="10"
       height="10"
       id="rect122" />
    <rect
       x="40"
       y="40"
       width="10"
       height="10"
       id="rect124" />
    <rect
       x="60"
       y="40"
       width="10"
       height="10"
       id="rect126" />
    <rect
       x="110"
       y="40"
       width="10"
       height="10"
       id="rect128" />
    <rect
       x="120"
       y="40"
       width="10"
       height="10"
       id="rect130" />
    <rect
       x="130"
       y="40"
       width="10"
       height="10"
       id="rect132" />
    <rect
       x="150"
       y="40"
       width="10"
       height="10"
       id="rect134" />
    <rect
       x="180"
       y="40"
       width="10"
       height="10"
       id="rect136" />
    <rect
       x="220"
       y="40"
       width="10"
       height="10"
       id="rect138" />
    <rect
       x="240"
       y="40"
       width="10"
       height="10"
       id="rect140" />
    <rect
       x="250"
       y="40"
       width="10"
       height="10"
       id="rect142" />
    <rect
       x="260"
       y="40"
       width="10"
       height="10"
       id="rect144" />
    <rect
       x="280"
       y="40"
       width="10"
       height="10"
       id="rect146" />
    <rect
       x="0"
       y="50"
       width="10"
       height="10"
       id="rect148" />
    <rect
       x="60"
       y="50"
       width="10"
       height="10"
       id="rect150" />
    <rect
       x="80"
       y="50"
       width="10"
       height="10"
       id="rect152" />
    <rect
       x="100"
       y="50"
       width="10"
       height="10"
       id="rect154" />
    <rect
       x="120"
       y="50"
       width="10"
       height="10"
       id="rect156" />
    <rect
       x="130"
       y="50"
       width="10"
       height="10"
       id="rect158" />
    <rect
       x="140"
       y="50"
       width="10"
       height="10"
       id="rect160" />
    <rect
       x="150"
       y="50"
       width="10"
       height="10"
       id="rect162" />
    <rect
       x="170"
       y="50"
       width="10"
       height="10"
       id="rect164" />
    <rect
       x="190"
       y="50"
       width="10"
       height="10"
       id="rect166" />
    <rect
       x="200"
       y="50"
       width="10"
       height="10"
       id="rect168" />
    <rect
       x="220"
       y="50"
       width="10"
       height="10"
       id="rect170" />
    <rect
       x="280"
       y="50"
       width="10"
       height="10"
       id="rect172" />
    <rect
       x="0"
       y="60"
       width="10"
       height="10"
       id="rect174" />
    <rect
       x="10"
       y="60"
       width="10"
       height="10"
       id="rect176" />
    <rect
       x="20"
       y="60"
       width="10"
       height="10"
       id="rect178" />
    <rect
       x="30"
       y="60"
       width="10"
       height="10"
       id="rect180" />
    <rect
       x="40"
       y="60"
       width="10"
       height="10"
       id="rect182" />
    <rect
       x="50"
       y="60"
       width="10"
       height="10"
       id="rect184" />
    <rect
       x="60"
       y="60"
       width="10"
       height="10"
       id="rect186" />
    <rect
       x="80"
       y="60"
       width="10"
       height="10"
       id="rect188" />
    <rect
       x="100"
       y="60"
       width="10"
       height="10"
       id="rect190" />
    <rect
       x="120"
       y="60"
       width="10"
       height="10"
       id="rect192" />
    <rect
       x="140"
       y="60"
       width="10"
       height="10"
       id="rect194" />
    <rect
       x="160"
       y="60"
       width="10"
       height="10"
       id="rect196" />
    <rect
       x="180"
       y="60"
       width="10"
       height="10"
       id="rect198" />
    <rect
       x="200"
       y="60"
       width="10"
       height="10"
       id="rect200" />
    <rect
       x="220"
       y="60"
       width="10"
       height="10"
       id="rect202" />
    <rect
       x="230"
       y="60"
       width="10"
       height="10"
       id="rect204" />
    <rect
       x="240"
       y="60"
       width="10"
       height="10"
       id="rect206" />
    <rect
       x="250"
       y="60"
       width="10"
       height="10"
       id="rect208" />
    <rect
       x="260"
       y="60"
       width="10"
       height="10"
       id="rect210" />
    <rect
       x="270"
       y="60"
       width="10"
       height="10"
       id="rect212" />
    <rect
       x="280"
       y="60"
       width="10"
       height="10"
       id="rect214" />
    <rect
       x="110"
       y="70"
       width="10"
       height="10"
       id="rect216" />
    <rect
       x="150"
       y="70"
       width="10"
       height="10"
       id="rect218" />
    <rect
       x="170"
       y="70"
       width="10"
       height="10"
       id="rect220" />
    <rect
       x="200"
       y="70"
       width="10"
       height="10"
       id="rect222" />
    <rect
       x="0"
       y="80"
       width="10"
       height="10"
       id="rect224" />
    <rect
       x="30"
       y="80"
       width="10"
       height="10"
       id="rect226" />
    <rect
       x="50"
       y="80"
       width="10"
       height="10"
       id="rect228" />
    <rect
       x="60"
       y="80"
       width="10"
       height="10"
       id="rect230" />
    <rect
       x="80"
       y="80"
       width="10"
       height="10"
       id="rect232" />
    <rect
       x="90"
       y="80"
       width="10"
       height="10"
       id="rect234" />
    <rect
       x="100"
       y="80"
       width="10"
       height="10"
       id="rect236" />
    <rect
       x="110"
       y="80"
       width="10"
       height="10"
       id="rect238" />
    <rect
       x="130"
       y="80"
       width="10"
       height="10"
       id="rect240" />
    <rect
       x="140"
       y="80"
       width="10"
       height="10"
       id="rect242" />
    <rect
       x="180"
       y="80"
       width="10"
       height="10"
       id="rect244" />
    <rect
       x="200"
       y="80"
       width="10"
       height="10"
       id="rect246" />
    <rect
       x="210"
       y="80"
       width="10"
       height="10"
       id="rect248" />
    <rect
       x="230"
       y="80"
       width="10"
       height="10"
       id="rect250" />
    <rect
       x="10"
       y="90"
       width="10"
       height="10"
       id="rect252" />
    <rect
       x="20"
       y="90"
       width="10"
       height="10"
       id="rect254" />
    <rect
       x="40"
       y="90"
       width="10"
       height="10"
       id="rect256" />
    <rect
       x="50"
       y="90"
       width="10"
       height="10"
       id="rect258" />
    <rect
       x="80"
       y="90"
       width="10"
       height="10"
       id="rect260" />
    <rect
       x="110"
       y="90"
       width="10"
       height="10"
       id="rect262" />
    <rect
       x="120"
       y="90"
       width="10"
       height="10"
       id="rect264" />
    <rect
       x="130"
       y="90"
       width="10"
       height="10"
       id="rect266" />
    <rect
       x="140"
       y="90"
       width="10"
       height="10"
       id="rect268" />
    <rect
       x="200"
       y="90"
       width="10"
       height="10"
       id="rect270" />
    <rect
       x="210"
       y="90"
       width="10"
       height="10"
       id="rect272" />
    <rect
       x="220"
       y="90"
       width="10"
       height="10"
       id="rect274" />
    <rect
       x="250"
       y="90"
       width="10"
       height="10"
       id="rect276" />
    <rect
       x="280"
       y="90"
       width="10"
       height="10"
       id="rect278" />
    <rect
       x="0"
       y="100"
       width="10"
       height="10"
       id="rect280" />
    <rect
       x="10"
       y="100"
       width="10"
       height="10"
       id="rect282" />
    <rect
       x="60"
       y="100"
       width="10"
       height="10"
       id="rect284" />
    <rect
       x="80"
       y="100"
       width="10"
       height="10"
       id="rect286" />
    <rect
       x="110"
       y="100"
       width="10"
       height="10"
       id="rect288" />
    <rect
       x="130"
       y="100"
       width="10"
       height="10"
       id="rect290" />
    <rect
       x="140"
       y="100"
       width="10"
       height="10"
       id="rect292" />
    <rect
       x="160"
       y="100"
       width="10"
       height="10"
       id="rect294" />
    <rect
       x="170"
       y="100"
       width="10"
       height="10"
       id="rect296" />
    <rect
       x="190"
       y="100"
       width="10"
       height="10"
       id="rect298" />
    <rect
       x="230"
       y="100"
       width="10"
       height="10"
       id="rect300" />
    <rect
       x="240"
       y="100"
       width="10"
       height="10"
       id="rect302" />
    <rect
       x="250"
       y="100"
       width="10"
       height="10"
       id="rect304" />
    <rect
       x="260"
       y="100"
       width="10"
       height="10"
       id="rect306" />
    <rect
       x="270"
       y="100"
       width="10"
       height="10"
       id="rect308" />
    <rect
       x="0"
       y="110"
       width="10"
       height="10"
       id="rect310" />
    <rect
       x="10"
       y="110"
       width="10"
       height="10"
       id="rect312" />
    <rect
       x="30"
       y="110"
       width="10"
       height="10"
       id="rect314" />
    <rect
       x="40"
       y="110"
       width="10"
       height="10"
       id="rect316" />
    <rect
       x="50"
       y="110"
       width="10"
       height="10"
       id="rect318" />
    <rect
       x="80"
       y="110"
       width="10"
       height="10"
       id="rect320" />
    <rect
       x="100"
       y="110"
       width="10"
       height="10"
       id="rect322" />
    <rect
       x="110"
       y="110"
       width="10"
       height="10"
       id="rect324" />
    <rect
       x="120"
       y="110"
       width="10"
       height="10"
       id="rect326" />
    <rect
       x="130"
       y="110"
       width="10"
       height="10"
       id="rect328" />
    <rect
       x="140"
       y="110"
       width="10"
       height="10"
       id="rect330" />
    <rect
       x="190"
       y="110"
       width="10"
       height="10"
       id="rect332" />
    <rect
       x="200"
       y="110"
       width="10"
       height="10"
       id="rect334" />
    <rect
       x="230"
       y="110"
       width="10"
       height="10"
       id="rect336" />
    <rect
       x="260"
       y="110"
       width="10"
       height="10"
       id="rect338" />
    <rect
       x="270"
       y="110"
       width="10"
       height="10"
       id="rect340" />
    <rect
       x="0"
       y="120"
       width="10"
       height="10"
       id="rect342" />
    <rect
       x="20"
       y="120"
       width="10"
       height="10"
       id="rect344" />
    <rect
       x="40"
       y="120"
       width="10"
       height="10"
       id="rect346" />
    <rect
       x="60"
       y="120"
       width="10"
       height="10"
       id="rect348" />
    <rect
       x="100"
       y="120"
       width="10"
       height="10"
       id="rect350" />
    <rect
       x="110"
       y="120"
       width="10"
       height="10"
       id="rect352" />
    <rect
       x="130"
       y="120"
       width="10"
       height="10"
       id="rect354" />
    <rect
       x="140"
       y="120"
       width="10"
       height="10"
       id="rect356" />
    <rect
       x="170"
       y="120"
       width="10"
       height="10"
       id="rect358" />
    <rect
       x="190"
       y="120"
       width="10"
       height="10"
       id="rect360" />
    <rect
       x="200"
       y="120"
       width="10"
       height="10"
       id="rect362" />
    <rect
       x="220"
       y="120"
       width="10"
       height="10"
       id="rect364" />
    <rect
       x="250"
       y="120"
       width="10"
       height="10"
       id="rect366" />
    <rect
       x="270"
       y="120"
       width="10"
       height="10"
       id="rect368" />
    <rect
       x="280"
       y="120"
       width="10"
       height="10"
       id="rect370" />
    <rect
       x="10"
       y="130"
       width="10"
       height="10"
       id="rect372" />
    <rect
       x="30"
       y="130"
       width="10"
       height="10"
       id="rect374" />
    <rect
       x="70"
       y="130"
       width="10"
       height="10"
       id="rect376" />
    <rect
       x="80"
       y="130"
       width="10"
       height="10"
       id="rect378" />
    <rect
       x="90"
       y="130"
       width="10"
       height="10"
       id="rect380" />
    <rect
       x="100"
       y="130"
       width="10"
       height="10"
       id="rect382" />
    <rect
       x="110"
       y="130"
       width="10"
       height="10"
       id="rect384" />
    <rect
       x="120"
       y="130"
       width="10"
       height="10"
       id="rect386" />
    <rect
       x="130"
       y="130"
       width="10"
       height="10"
       id="rect388" />
    <rect
       x="160"
       y="130"
       width="10"
       height="10"
       id="rect390" />
    <rect
       x="190"
       y="130"
       width="10"
       height="10"
       id="rect392" />
    <rect
       x="200"
       y="130"
       width="10"
       height="10"
       id="rect394" />
    <rect
       x="0"
       y="140"
       width="10"
       height="10"
       id="rect396" />
    <rect
       x="10"
       y="140"
       width="10"
       height="10"
       id="rect398" />
    <rect
       x="20"
       y="140"
       width="10"
       height="10"
       id="rect400" />
    <rect
       x="40"
       y="140"
       width="10"
       height="10"
       id="rect402" />
    <rect
       x="60"
       y="140"
       width="10"
       height="10"
       id="rect404" />
    <rect
       x="100"
       y="140"
       width="10"
       height="10"
       id="rect406" />
    <rect
       x="110"
       y="140"
       width="10"
       height="10"
       id="rect408" />
    <rect
       x="120"
       y="140"
       width="10"
       height="10"
       id="rect410" />
    <rect
       x="130"
       y="140"
       width="10"
       height="10"
       id="rect412" />
    <rect
       x="140"
       y="140"
       width="10"
       height="10"
       id="rect414" />
    <rect
       x="160"
       y="140"
       width="10"
       height="10"
       id="rect416" />
    <rect
       x="170"
       y="140"
       width="10"
       height="10"
       id="rect418" />
    <rect
       x="180"
       y="140"
       width="10"
       height="10"
       id="rect420" />
    <rect
       x="200"
       y="140"
       width="10"
       height="10"
       id="rect422" />
    <rect
       x="230"
       y="140"
       width="10"
       height="10"
       id="rect424" />
    <rect
       x="240"
       y="140"
       width="10"
       height="10"
       id="rect426" />
    <rect
       x="250"
       y="140"
       width="10"
       height="10"
       id="rect428" />
    <rect
       x="260"
       y="140"
       width="10"
       height="10"
       id="rect430" />
    <rect
       x="270"
       y="140"
       width="10"
       height="10"
       id="rect432" />
    <rect
       x="280"
       y="140"
       width="10"
       height="10"
       id="rect434" />
    <rect
       x="10"
       y="150"
       width="10"
       height="10"
       id="rect436" />
    <rect
       x="30"
       y="150"
       width="10"
       height="10"
       id="rect438" />
    <rect
       x="50"
       y="150"
       width="10"
       height="10"
       id="rect440" />
    <rect
       x="130"
       y="150"
       width="10"
       height="10"
       id="rect442" />
    <rect
       x="140"
       y="150"
       width="10"
       height="10"
       id="rect444" />
    <rect
       x="150"
       y="150"
       width="10"
       height="10"
       id="rect446" />
    <rect
       x="170"
       y="150"
       width="10"
       height="10"
       id="rect448" />
    <rect
       x="180"
       y="150"
       width="10"
       height="10"
       id="rect450" />
    <rect
       x="200"
       y="150"
       width="10"
       height="10"
       id="rect452" />
    <rect
       x="210"
       y="150"
       width="10"
       height="10"
       id="rect454" />
    <rect
       x="250"
       y="150"
       width="10"
       height="10"
       id="rect456" />
    <rect
       x="270"
       y="150"
       width="10"
       height="10"
       id="rect458" />
    <rect
       x="0"
       y="160"
       width="10"
       height="10"
       id="rect460" />
    <rect
       x="10"
       y="160"
       width="10"
       height="10"
       id="rect462" />
    <rect
       x="20"
       y="160"
       width="10"
       height="10"
       id="rect464" />
    <rect
       x="30"
       y="160"
       width="10"
       height="10"
       id="rect466" />
    <rect
       x="40"
       y="160"
       width="10"
       height="10"
       id="rect468" />
    <rect
       x="50"
       y="160"
       width="10"
       height="10"
       id="rect470" />
    <rect
       x="60"
       y="160"
       width="10"
       height="10"
       id="rect472" />
    <rect
       x="110"
       y="160"
       width="10"
       height="10"
       id="rect474" />
    <rect
       x="120"
       y="160"
       width="10"
       height="10"
       id="rect476" />
    <rect
       x="130"
       y="160"
       width="10"
       height="10"
       id="rect478" />
    <rect
       x="140"
       y="160"
       width="10"
       height="10"
       id="rect480" />
    <rect
       x="160"
       y="160"
       width="10"
       height="10"
       id="rect482" />
    <rect
       x="170"
       y="160"
       width="10"
       height="10"
       id="rect484" />
    <rect
       x="190"
       y="160"
       width="10"
       height="10"
       id="rect486" />
    <rect
       x="200"
       y="160"
       width="10"
       height="10"
       id="rect488" />
    <rect
       x="230"
       y="160"
       width="10"
       height="10"
       id="rect490" />
    <rect
       x="270"
       y="160"
       width="10"
       height="10"
       id="rect492" />
    <rect
       x="10"
       y="170"
       width="10"
       height="10"
       id="rect494" />
    <rect
       x="90"
       y="170"
       width="10"
       height="10"
       id="rect496" />
    <rect
       x="100"
       y="170"
       width="10"
       height="10"
       id="rect498" />
    <rect
       x="110"
       y="170"
       width="10"
       height="10"
       id="rect500" />
    <rect
       x="140"
       y="170"
       width="10"
       height="10"
       id="rect502" />
    <rect
       x="170"
       y="170"
       width="10"
       height="10"
       id="rect504" />
    <rect
       x="220"
       y="170"
       width="10"
       height="10"
       id="rect506" />
    <rect
       x="230"
       y="170"
       width="10"
       height="10"
       id="rect508" />
    <rect
       x="250"
       y="170"
       width="10"
       height="10"
       id="rect510" />
    <rect
       x="280"
       y="170"
       width="10"
       height="10"
       id="rect512" />
    <rect
       x="10"
       y="180"
       width="10"
       height="10"
       id="rect514" />
    <rect
       x="30"
       y="180"
       width="10"
       height="10"
       id="rect516" />
    <rect
       x="60"
       y="180"
       width="10"
       height="10"
       id="rect518" />
    <rect
       x="70"
       y="180"
       width="10"
       height="10"
       id="rect520" />
    <rect
       x="110"
       y="180"
       width="10"
       height="10"
       id="rect522" />
    <rect
       x="130"
       y="180"
       width="10"
       height="10"
       id="rect524" />
    <rect
       x="160"
       y="180"
       width="10"
       height="10"
       id="rect526" />
    <rect
       x="170"
       y="180"
       width="10"
       height="10"
       id="rect528" />
    <rect
       x="200"
       y="180"
       width="10"
       height="10"
       id="rect530" />
    <rect
       x="230"
       y="180"
       width="10"
       height="10"
       id="rect532" />
    <rect
       x="270"
       y="180"
       width="10"
       height="10"
       id="rect534" />
    <rect
       x="280"
       y="180"
       width="10"
       height="10"
       id="rect536" />
    <rect
       x="0"
       y="190"
       width="10"
       height="10"
       id="rect538" />
    <rect
       x="10"
       y="190"
       width="10"
       height="10"
       id="rect540" />
    <rect
       x="20"
       y="190"
       width="10"
       height="10"
       id="rect542" />
    <rect
       x="40"
       y="190"
       width="10"
       height="10"
       id="rect544" />
    <rect
       x="50"
       y="190"
       width="10"
       height="10"
       id="rect546" />
    <rect
       x="70"
       y="190"
       width="10"
       height="10"
       id="rect548" />
    <rect
       x="90"
       y="190"
       width="10"
       height="10"
       id="rect550" />
    <rect
       x="100"
       y="190"
       width="10"
       height="10"
       id="rect552" />
    <rect
       x="110"
       y="190"
       width="10"
       height="10"
       id="rect554" />
    <rect
       x="120"
       y="190"
       width="10"
       height="10"
       id="rect556" />
    <rect
       x="130"
       y="190"
       width="10"
       height="10"
       id="rect558" />
    <rect
       x="170"
       y="190"
       width="10"
       height="10"
       id="rect560" />
    <rect
       x="180"
       y="190"
       width="10"
       height="10"
       id="rect562" />
    <rect
       x="190"
       y="190"
       width="10"
       height="10"
       id="rect564" />
    <rect
       x="200"
       y="190"
       width="10"
       height="10"
       id="rect566" />
    <rect
       x="220"
       y="190"
       width="10"
       height="10"
       id="rect568" />
    <rect
       x="230"
       y="190"
       width="10"
       height="10"
       id="rect570" />
    <rect
       x="270"
       y="190"
       width="10"
       height="10"
       id="rect572" />
    <rect
       x="280"
       y="190"
       width="10"
       height="10"
       id="rect574" />
    <rect
       x="10"
       y="200"
       width="10"
       height="10"
       id="rect576" />
    <rect
       x="20"
       y="200"
       width="10"
       height="10"
       id="rect578" />
    <rect
       x="30"
       y="200"
       width="10"
       height="10"
       id="rect580" />
    <rect
       x="40"
       y="200"
       width="10"
       height="10"
       id="rect582" />
    <rect
       x="50"
       y="200"
       width="10"
       height="10"
       id="rect584" />
    <rect
       x="60"
       y="200"
       width="10"
       height="10"
       id="rect586" />
    <rect
       x="70"
       y="200"
       width="10"
       height="10"
       id="rect588" />
    <rect
       x="80"
       y="200"
       width="10"
       height="10"
       id="rect590" />
    <rect
       x="90"
       y="200"
       width="10"
       height="10"
       id="rect592" />
    <rect
       x="120"
       y="200"
       width="10"
       height="10"
       id="rect594" />
    <rect
       x="140"
       y="200"
       width="10"
       height="10"
       id="rect596" />
    <rect
       x="150"
       y="200"
       width="10"
       height="10"
       id="rect598" />
    <rect
       x="160"
       y="200"
       width="10"
       height="10"
       id="rect600" />
    <rect
       x="180"
       y="200"
       width="10"
       height="10"
       id="rect602" />
    <rect
       x="190"
       y="200"
       width="10"
       height="10"
       id="rect604" />
    <rect
       x="200"
       y="200"
       width="10"
       height="10"
       id="rect606" />
    <rect
       x="210"
       y="200"
       width="10"
       height="10"
       id="rect608" />
    <rect
       x="220"
       y="200"
       width="10"
       height="10"
       id="rect610" />
    <rect
       x="230"
       y="200"
       width="10"
       height="10"
       id="rect612" />
    <rect
       x="240"
       y="200"
       width="10"
       height="10"
       id="rect614" />
    <rect
       x="260"
       y="200"
       width="10"
       height="10"
       id="rect616" />
    <rect
       x="80"
       y="210"
       width="10"
       height="10"
       id="rect618" />
    <rect
       x="90"
       y="210"
       width="10"
       height="10"
       id="rect620" />
    <rect
       x="100"
       y="210"
       width="10"
       height="10"
       id="rect622" />
    <rect
       x="130"
       y="210"
       width="10"
       height="10"
       id="rect624" />
    <rect
       x="160"
       y="210"
       width="10"
       height="10"
       id="rect626" />
    <rect
       x="190"
       y="210"
       width="10"
       height="10"
       id="rect628" />
    <rect
       x="200"
       y="210"
       width="10"
       height="10"
       id="rect630" />
    <rect
       x="240"
       y="210"
       width="10"
       height="10"
       id="rect632" />
    <rect
       x="260"
       y="210"
       width="10"
       height="10"
       id="rect634" />
    <rect
       x="270"
       y="210"
       width="10"
       height="10"
       id="rect636" />
    <rect
       x="280"
       y="210"
       width="10"
       height="10"
       id="rect638" />
    <rect
       x="0"
       y="220"
       width="10"
       height="10"
       id="rect640" />
    <rect
       x="10"
       y="220"
       width="10"
       height="10"
       id="rect642" />
    <rect
       x="20"
       y="220"
       width="10"
       height="10"
       id="rect644" />
    <rect
       x="30"
       y="220"
       width="10"
       height="10"
       id="rect646" />
    <rect
       x="40"
       y="220"
       width="10"
       height="10"
       id="rect648" />
    <rect
       x="50"
       y="220"
       width="10"
       height="10"
       id="rect650" />
    <rect
       x="60"
       y="220"
       width="10"
       height="10"
       id="rect652" />
    <rect
       x="90"
       y="220"
       width="10"
       height="10"
       id="rect654" />
    <rect
       x="110"
       y="220"
       width="10"
       height="10"
       id="rect656" />
    <rect
       x="130"
       y="220"
       width="10"
       height="10"
       id="rect658" />
    <rect
       x="140"
       y="220"
       width="10"
       height="10"
       id="rect660" />
    <rect
       x="160"
       y="220"
       width="10"
       height="10"
       id="rect662" />
    <rect
       x="170"
       y="220"
       width="10"
       height="10"
       id="rect664" />
    <rect
       x="200"
       y="220"
       width="10"
       height="10"
       id="rect666" />
    <rect
       x="220"
       y="220"
       width="10"
       height="10"
       id="rect668" />
    <rect
       x="240"
       y="220"
       width="10"
       height="10"
       id="rect670" />
    <rect
       x="270"
       y="220"
       width="10"
       height="10"
       id="rect672" />
    <rect
       x="0"
       y="230"
       width="10"
       height="10"
       id="rect674" />
    <rect
       x="60"
       y="230"
       width="10"
       height="10"
       id="rect676" />
    <rect
       x="80"
       y="230"
       width="10"
       height="10"
       id="rect678" />
    <rect
       x="110"
       y="230"
       width="10"
       height="10"
       id="rect680" />
    <rect
       x="130"
       y="230"
       width="10"
       height="10"
       id="rect682" />
    <rect
       x="150"
       y="230"
       width="10"
       height="10"
       id="rect684" />
    <rect
       x="160"
       y="230"
       width="10"
       height="10"
       id="rect686" />
    <rect
       x="180"
       y="230"
       width="10"
       height="10"
       id="rect688" />
    <rect
       x="190"
       y="230"
       width="10"
       height="10"
       id="rect690" />
    <rect
       x="200"
       y="230"
       width="10"
       height="10"
       id="rect692" />
    <rect
       x="240"
       y="230"
       width="10"
       height="10"
       id="rect694" />
    <rect
       x="250"
       y="230"
       width="10"
       height="10"
       id="rect696" />
    <rect
       x="260"
       y="230"
       width="10"
       height="10"
       id="rect698" />
    <rect
       x="270"
       y="230"
       width="10"
       height="10"
       id="rect700" />
    <rect
       x="0"
       y="240"
       width="10"
       height="10"
       id="rect702" />
    <rect
       x="20"
       y="240"
       width="10"
       height="10"
       id="rect704" />
    <rect
       x="30"
       y="240"
       width="10"
       height="10"
       id="rect706" />
    <rect
       x="40"
       y="240"
       width="10"
       height="10"
       id="rect708" />
    <rect
       x="60"
       y="240"
       width="10"
       height="10"
       id="rect710" />
    <rect
       x="100"
       y="240"
       width="10"
       height="10"
       id="rect712" />
    <rect
       x="110"
       y="240"
       width="10"
       height="10"
       id="rect714" />
    <rect
       x="120"
       y="240"
       width="10"
       height="10"
       id="rect716" />
    <rect
       x="140"
       y="240"
       width="10"
       height="10"
       id="rect718" />
    <rect
       x="160"
       y="240"
       width="10"
       height="10"
       id="rect720" />
    <rect
       x="170"
       y="240"
       width="10"
       height="10"
       id="rect722" />
    <rect
       x="200"
       y="240"
       width="10"
       height="10"
       id="rect724" />
    <rect
       x="210"
       y="240"
       width="10"
       height="10"
       id="rect726" />
    <rect
       x="220"
       y="240"
       width="10"
       height="10"
       id="rect728" />
    <rect
       x="230"
       y="240"
       width="10"
       height="10"
       id="rect730" />
    <rect
       x="240"
       y="240"
       width="10"
       height="10"
       id="rect732" />
    <rect
       x="0"
       y="250"
       width="10"
       height="10"
       id="rect734" />
    <rect
       x="20"
       y="250"
       width="10"
       height="10"
       id="rect736" />
    <rect
       x="30"
       y="250"
       width="10"
       height="10"
       id="rect738" />
    <rect
       x="40"
       y="250"
       width="10"
       height="10"
       id="rect740" />
    <rect
       x="60"
       y="250"
       width="10"
       height="10"
       id="rect742" />
    <rect
       x="80"
       y="250"
       width="10"
       height="10"
       id="rect744" />
    <rect
       x="90"
       y="250"
       width="10"
       height="10"
       id="rect746" />
    <rect
       x="100"
       y="250"
       width="10"
       height="10"
       id="rect748" />
    <rect
       x="120"
       y="250"
       width="10"
       height="10"
       id="rect750" />
    <rect
       x="140"
       y="250"
       width="10"
       height="10"
       id="rect752" />
    <rect
       x="170"
       y="250"
       width="10"
       height="10"
       id="rect754" />
    <rect
       x="210"
       y="250"
       width="10"
       height="10"
       id="rect756" />
    <rect
       x="220"
       y="250"
       width="10"
       height="10"
       id="rect758" />
    <rect
       x="240"
       y="250"
       width="10"
       height="10"
       id="rect760" />
    <rect
       x="250"
       y="250"
       width="10"
       height="10"
       id="rect762" />
    <rect
       x="260"
       y="250"
       width="10"
       height="10"
       id="rect764" />
    <rect
       x="270"
       y="250"
       width="10"
       height="10"
       id="rect766" />
    <rect
       x="0"
       y="260"
       width="10"
       height="10"
       id="rect768" />
    <rect
       x="20"
       y="260"
       width="10"
       height="10"
       id="rect770" />
    <rect
       x="30"
       y="260"
       width="10"
       height="10"
       id="rect772" />
    <rect
       x="40"
       y="260"
       width="10"
       height="10"
       id="rect774" />
    <rect
       x="60"
       y="260"
       width="10"
       height="10"
       id="rect776" />
    <rect
       x="110"
       y="260"
       width="10"
       height="10"
       id="rect778" />
    <rect
       x="130"
       y="260"
       width="10"
       height="10"
       id="rect780" />
    <rect
       x="140"
       y="260"
       width="10"
       height="10"
       id="rect782" />
    <rect
       x="160"
       y="260"
       width="10"
       height="10"
       id="rect784" />
    <rect
       x="180"
       y="260"
       width="10"
       height="10"
       id="rect786" />
    <rect
       x="200"
       y="260"
       width="10"
       height="10"
       id="rect788" />
    <rect
       x="210"
       y="260"
       width="10"
       height="10"
       id="rect790" />
    <rect
       x="240"
       y="260"
       width="10"
       height="10"
       id="rect792" />
    <rect
       x="250"
       y="260"
       width="10"
       height="10"
       id="rect794" />
    <rect
       x="260"
       y="260"
       width="10"
       height="10"
       id="rect796" />
    <rect
       x="280"
       y="260"
       width="10"
       height="10"
       id="rect798" />
    <rect
       x="0"
       y="270"
       width="10"
       height="10"
       id="rect800" />
    <rect
       x="60"
       y="270"
       width="10"
       height="10"
       id="rect802" />
    <rect
       x="90"
       y="270"
       width="10"
       height="10"
       id="rect804" />
    <rect
       x="110"
       y="270"
       width="10"
       height="10"
       id="rect806" />
    <rect
       x="120"
       y="270"
       width="10"
       height="10"
       id="rect808" />
    <rect
       x="150"
       y="270"
       width="10"
       height="10"
       id="rect810" />
    <rect
       x="170"
       y="270"
       width="10"
       height="10"
       id="rect812" />
    <rect
       x="180"
       y="270"
       width="10"
       height="10"
       id="rect814" />
    <rect
       x="200"
       y="270"
       width="10"
       height="10"
       id="rect816" />
    <rect
       x="270"
       y="270"
       width="10"
       height="10"
       id="rect818" />
    <rect
       x="0"
       y="280"
       width="10"
       height="10"
       id="rect820" />
    <rect
       x="10"
       y="280"
       width="10"
       height="10"
       id="rect822" />
    <rect
       x="20"
       y="280"
       width="10"
       height="10"
       id="rect824" />
    <rect
       x="30"
       y="280"
       width="10"
       height="10"
       id="rect826" />
    <rect
       x="40"
       y="280"
       width="10"
       height="10"
       id="rect828" />
    <rect
       x="50"
       y="280"
       width="10"
       height="10"
       id="rect830" />
    <rect
       x="60"
       y="280"
       width="10"
       height="10"
       id="rect832" />
    <rect
       x="80"
       y="280"
       width="10"
       height="10"
       id="rect834" />
    <rect
       x="100"
       y="280"
       width="10"
       height="10"
       id="rect836" />
    <rect
       x="130"
       y="280"
       width="10"
       height="10"
       id="rect838" />
    <rect
       x="150"
       y="280"
       width="10"
       height="10"
       id="rect840" />
    <rect
       x="170"
       y="280"
       width="10"
       height="10"
       id="rect842" />
    <rect
       x="190"
       y="280"
       width="10"
       height="10"
       id="rect844" />
    <rect
       x="200"
       y="280"
       width="10"
       height="10"
       id="rect846" />
    <rect
       x="220"
       y="280"
       width="10"
       height="10"
       id="rect848" />
    <rect
       x="230"
       y="280"
       width="10"
       height="10"
       id="rect850" />
    <rect
       x="240"
       y="280"
       width="10"
       height="10"
       id="rect852" />
    <rect
       x="250"
       y="280"
       width="10"
       height="10"
       id="rect854" />
    <rect
       x="270"
       y="280"
       width="10"
       height="10"
       id="rect856" />
  </g>
  <g
     id="g1681"
     transform="matrix(1.1238803,0,0,1.1238803,298.36198,146.8361)">
    <text
       id="text1674"
       y="67.628189"
       x="-127.94919"
       style="font-style:normal;font-weight:normal;font-size:70.25260162px;line-height:1.25;font-family:sans-serif;letter-spacing:0px;word-spacing:0px;fill:#000000;fill-opacity:1;stroke:none;stroke-width:1.75631499"
       xml:space="preserve"><tspan
         style="fill:#ff0000;stroke-width:1.75631499"
         y="67.628189"
         x="-127.94919"
         id="tspan1672"
         sodipodi:role="line">陳</tspan></text>
    <circle
       r="50"
       cy="40.932201"
       cx="-91.1017"
       id="path1676"
       style="opacity:1;fill:none;stroke:#ff0000;stroke-width:1.2458905;stroke-linejoin:round;stroke-miterlimit:4;stroke-dasharray:none" />
  </g>
</svg>
